<?xml version="1.0" encoding="UTF-8"?>
<svg width="24px" height="24px" viewBox="0 0 24 24" version="1.1" xmlns="http://www.w3.org/2000/svg" xmlns:xlink="http://www.w3.org/1999/xlink">
    <title>icon_Media_video</title>
    <g id="icon_Media_video" stroke="none" stroke-width="1" fill="none" fill-rule="evenodd">
        <path d="M14.6923077,5 C15.9667575,5 17,6.10617726 17,7.47058824 L17,7.47058824 L17,9.066 L22,5.82352941 L22,17.9296148 L17,14.687 L17,16.5294118 C17,17.8369723 16.0510672,18.9073702 14.8503003,18.9943 L14.6923077,19 L4.30769231,19 C3.0332425,19 2,17.8938227 2,16.5294118 L2,16.5294118 L2,7.47058824 C2,6.10617726 3.0332425,5 4.30769231,5 L4.30769231,5 Z M14.6923077,6.64705882 L4.30769231,6.64705882 C3.88291135,6.64705882 3.53846154,7.01582274 3.53846154,7.47058824 L3.53846154,7.47058824 L3.53846154,16.5294118 C3.53846154,16.9841773 3.88291135,17.3529412 4.30769231,17.3529412 L4.30769231,17.3529412 L14.6923077,17.3529412 C15.1170887,17.3529412 15.4615385,16.9841773 15.4615385,16.5294118 L15.4615385,16.5294118 L15.4615385,7.47058824 C15.4615385,7.01582274 15.1170887,6.64705882 14.6923077,6.64705882 L14.6923077,6.64705882 Z M20.5454545,8.66377799 L17.4545455,10.6680427 L17.4545455,13.0840721 L20.5454545,15.0883368 L20.5454545,8.66377799 Z" id="Combined-Shape" fill="#333333" fill-rule="nonzero"></path>
    </g>
</svg>