<?xml version="1.0" encoding="UTF-8"?>
<svg width="24px" height="24px" viewBox="0 0 24 24" version="1.1" xmlns="http://www.w3.org/2000/svg" xmlns:xlink="http://www.w3.org/1999/xlink">
    <title>icon_Text_BGColor</title>
    <g id="icon_Text_BGColor" stroke="none" stroke-width="1" fill="none" fill-rule="evenodd">
        <rect id="Line_H" stroke="#CCCCCC" stroke-width="0.8" fill="#FFFFFF" x="1.4" y="1.4" width="21.2" height="21.2"></rect>
        <path d="M4.55338346,7.84660767 L4,7.84660767 L4.08421053,4 L19.9157895,4 L20,7.84660767 L19.4827068,7.84660767 C19.2982456,6.79252704 19.045614,6.03146509 18.724812,5.56342183 C18.40401,5.09537856 18.0591479,4.80825959 17.6902256,4.7020649 C17.3213033,4.59587021 16.6917293,4.54277286 15.8015038,4.54277286 L13.1789474,4.54277286 L13.1789474,15.8348083 C13.1789474,17.0855457 13.2090226,17.9075713 13.2691729,18.300885 C13.3293233,18.6941986 13.4917293,18.9852507 13.756391,19.1740413 C14.0210526,19.3628319 14.5182957,19.4572271 15.2481203,19.4572271 L16.0421053,19.4572271 L16.0421053,20 L7.90977444,20 L7.90977444,19.4572271 L8.7518797,19.4572271 C9.44962406,19.4572271 9.93283208,19.3706981 10.2015038,19.1976401 C10.4701754,19.0245821 10.6426065,18.7551622 10.718797,18.3893805 C10.7949875,18.0235988 10.8330827,17.1720747 10.8330827,15.8348083 L10.8330827,4.54277286 L8.41503759,4.54277286 C7.36441103,4.54277286 6.65864662,4.59193707 6.29774436,4.69026549 C5.93684211,4.7885939 5.59799499,5.08554572 5.28120301,5.58112094 C4.96441103,6.07669617 4.72180451,6.83185841 4.55338346,7.84660767 Z" id="Path" fill="#333333" fill-rule="nonzero"></path>
    </g>
</svg>