<?xml version="1.0" encoding="UTF-8"?>
<svg width="24px" height="24px" viewBox="0 0 24 24" version="1.1" xmlns="http://www.w3.org/2000/svg" xmlns:xlink="http://www.w3.org/1999/xlink">
    <title>icon_Code_insert</title>
    <g id="icon_Code_insert" stroke="none" stroke-width="1" fill="none" fill-rule="evenodd">
        <path d="M10.8644672,15.2866756 C9.90147124,16.2395693 8.74587606,16.5141319 7.63843067,16.5141319 C5.88898796,16.5141319 4.60499331,15.3351279 4.60499331,12.6702557 L4.60499331,11.3297443 C4.60499331,8.66487214 5.88898796,7.4858681 7.63843067,7.4858681 C8.68167633,7.4858681 9.59652251,7.69582773 10.6397682,8.55181696 L11.4583148,7.243607 C10.3829692,6.38761777 9.22737405,6 7.63843067,6 C4.89389211,6 3,7.72812921 3,11.1197847 L3,12.8802153 C3,16.3041723 4.87784218,18 7.63843067,18 C9.19527419,18 10.5755684,17.628533 11.7311636,16.5141319 L10.8644672,15.2866756 Z M12.6861346,17.8223419 L17.2924654,17.8223419 C19.796255,17.8223419 21,16.6594886 21,14.7537012 L21,14.3499327 C21,12.7348587 20.0209541,11.8950202 18.60856,11.6850606 C19.9888542,11.345895 20.4703522,10.3768506 20.4703522,9.35935397 L20.4703522,9.02018843 C20.4703522,7.11440108 19.2505573,6.17765814 16.7949175,6.17765814 L12.6861346,6.17765814 L12.6861346,17.8223419 Z M14.275078,12.3956931 L16.3455194,12.3956931 C18.6567098,12.3956931 19.3629068,12.9448183 19.3629068,14.3660834 L19.3629068,14.7213997 C19.3629068,16.0942127 18.5122604,16.4333782 16.6986179,16.4333782 L14.275078,16.4333782 L14.275078,12.3956931 Z M16.2171199,7.55047106 C18.0307624,7.55047106 18.849309,7.67967699 18.849309,9.05248991 L18.849309,9.34320323 C18.849309,10.7967699 17.9344628,11.0874832 16.3294695,11.0874832 L14.275078,11.0874832 L14.275078,7.55047106 L16.2171199,7.55047106 Z" id="Combined-Shape" fill="#333333" fill-rule="nonzero"></path>
    </g>
</svg>