<?xml version="1.0" encoding="UTF-8"?>
<svg width="24px" height="24px" viewBox="0 0 24 24" version="1.1" xmlns="http://www.w3.org/2000/svg" xmlns:xlink="http://www.w3.org/1999/xlink">
    <title>icon_Quatation</title>
    <g id="icon_Quatation" stroke="none" stroke-width="1" fill="none" fill-rule="evenodd">
        <path d="M9.40168628,5.13442496 C9.66922415,5.33529521 9.74221753,5.69785364 9.58675383,5.98220706 L9.53322709,6.06492704 C8.12564516,7.92531791 7.10619439,9.27271862 6.47487479,10.1071292 C6.76910383,10.0726583 7.06844075,10.0688924 7.36911849,10.0951983 C9.83346095,10.3108003 11.6571424,12.475128 11.4424249,14.9293595 C11.2277075,17.3835911 9.05590033,19.1983588 6.59155787,18.9827568 C4.1272154,18.7671548 2.30353399,16.602827 2.51825143,14.1485955 C2.52382436,14.0848966 2.53073245,14.0215045 2.53895823,13.9584512 L2.51825143,14.1485955 C2.53400747,13.9685031 2.5599719,13.7926482 2.59614472,13.6210306 L2.60043092,13.6008995 C2.73490096,12.9728522 3.00269165,12.3862652 3.38534156,11.8747446 C3.38797766,11.8712207 3.39061892,11.8677008 3.39326531,11.8641848 C3.5112707,11.6796553 3.61869781,11.5235257 3.71578923,11.3952007 C4.73523913,10.0478011 6.31914364,8.00432421 8.46750275,5.26476997 C8.68914642,4.97182514 9.10739464,4.91346769 9.40168628,5.13442496 Z M7.25331158,11.4188772 C6.79691409,11.3789476 6.34705752,11.4371666 5.92599167,11.5864053 C5.75641647,11.646508 5.59236121,11.7211044 5.43558486,11.809256 C5.2251094,11.9276014 5.02876052,12.0698159 4.85069727,12.2327913 C4.70552186,12.3656656 4.57312216,12.5117716 4.45542028,12.6691137 C4.11026635,13.1305103 3.89874035,13.6778698 3.84738365,14.2648795 C3.6966246,15.9880634 4.97708176,17.5076977 6.70736477,17.6590779 C8.43764777,17.810458 9.96253365,16.5362594 10.1132927,14.8130755 C10.2640518,13.0898917 8.98359459,11.5702573 7.25331158,11.4188772 Z M19.4428843,5.13442496 C19.7104222,5.33529521 19.7834155,5.69785364 19.6279518,5.98220706 L19.5744251,6.06492704 C18.1668432,7.92531791 17.1473924,9.27271862 16.5160728,10.1071292 C16.8103018,10.0726583 17.1096388,10.0688924 17.4103165,10.0951983 C19.874659,10.3108003 21.6983404,12.475128 21.4836229,14.9293595 C21.2689055,17.3835911 19.0970983,19.1983588 16.6327559,18.9827568 C14.1684134,18.7671548 12.344732,16.602827 12.5594494,14.1485955 C12.5650224,14.0848966 12.5719305,14.0215045 12.5801562,13.9584512 L12.5594494,14.1485955 C12.5752055,13.9685031 12.6011699,13.7926482 12.6373427,13.6210306 L12.6416289,13.6008995 C12.776099,12.9728522 13.0438897,12.3862652 13.4265396,11.8747446 C13.4291757,11.8712207 13.4318169,11.8677008 13.4344633,11.8641848 C13.5524687,11.6796553 13.6598958,11.5235257 13.7569872,11.3952007 C14.7764371,10.0478011 16.3603416,8.00432421 18.5087008,5.26476997 C18.7303444,4.97182514 19.1485926,4.91346769 19.4428843,5.13442496 Z M17.2945096,11.4188772 C16.8381121,11.3789476 16.3882555,11.4371666 15.9671897,11.5864053 C15.7976145,11.646508 15.6335592,11.7211044 15.4767829,11.809256 C15.2663074,11.9276014 15.0699585,12.0698159 14.8918953,12.2327913 C14.7467199,12.3656656 14.6143202,12.5117716 14.4966183,12.6691137 C14.1514644,13.1305103 13.9399384,13.6778698 13.8885817,14.2648795 C13.7378226,15.9880634 15.0182798,17.5076977 16.7485628,17.6590779 C18.4788458,17.810458 20.0037317,16.5362594 20.1544907,14.8130755 C20.3052498,13.0898917 19.0247926,11.5702573 17.2945096,11.4188772 Z" id="Combined-Shape" fill="#333333" fill-rule="nonzero"></path>
    </g>
</svg>