<?xml version="1.0" encoding="UTF-8"?>
<svg width="24px" height="24px" viewBox="0 0 24 24" version="1.1" xmlns="http://www.w3.org/2000/svg" xmlns:xlink="http://www.w3.org/1999/xlink">
    <title>icon_Code_inline</title>
    <g id="icon_Code_inline" stroke="none" stroke-width="1" fill="none" fill-rule="evenodd">
        <path d="M8.13433925,17.6587338 C7.85195306,17.94112 7.40825997,17.9641765 7.09845146,17.7282376 L7.01749947,17.6574695 L2.22562484,12.8655949 C1.94259858,12.5825686 1.91853742,12.1388222 2.15377553,11.8295471 L2.22436054,11.7487551 L7.00539835,6.96771728 C7.31345601,6.65965962 7.81348222,6.66022566 8.12223813,6.96898158 C8.40526439,7.25200784 8.42932554,7.69575426 8.19408743,8.00502938 L8.12350243,8.08582136 L3.90025236,12.3090714 L8.13307496,16.541894 C8.41610121,16.8249203 8.44016237,17.2686667 8.20492426,17.5779418 L8.13433925,17.6587338 Z M15.8656607,17.6587338 C16.1480469,17.94112 16.59174,17.9641765 16.9015485,17.7282376 L16.9825005,17.6574695 L21.7743752,12.8655949 C22.0574014,12.5825686 22.0814626,12.1388222 21.8462245,11.8295471 L21.7756395,11.7487551 L16.9946017,6.96771728 C16.686544,6.65965962 16.1865178,6.66022566 15.8777619,6.96898158 C15.5947356,7.25200784 15.5706745,7.69575426 15.8059126,8.00502938 L15.8764976,8.08582136 L20.0997476,12.3090714 L15.866925,16.541894 C15.5838988,16.8249203 15.5598376,17.2686667 15.7950757,17.5779418 L15.8656607,17.6587338 Z M13.1771196,5.50025647 C13.3045546,5.1170849 13.7177805,4.91000362 14.1000856,5.03772747 C14.4476356,5.15384007 14.6499856,5.50667887 14.5881603,5.85775424 L14.5615685,5.96278546 L10.3920333,18.4997435 C10.2645983,18.8829151 9.85137235,19.0899964 9.46906732,18.9622725 C9.1215173,18.8461599 8.91916732,18.4933211 8.98099254,18.1422458 L9.00758434,18.0372145 L13.1771196,5.50025647 Z" id="Combined-Shape" fill="#333333" fill-rule="nonzero"></path>
    </g>
</svg>