<?xml version="1.0" encoding="UTF-8"?>
<svg width="24px" height="24px" viewBox="0 0 24 24" version="1.1" xmlns="http://www.w3.org/2000/svg" xmlns:xlink="http://www.w3.org/1999/xlink">
    <title>icon_Media_image</title>
    <g id="icon_Media_image" stroke="none" stroke-width="1" fill="none" fill-rule="evenodd">
        <path d="M20.2463466,3 C21.2066806,3 22,3.83060109 22,4.83606557 L22,19.1639344 C22,20.1693989 21.2066806,21 20.2463466,21 L3.75365344,21 C2.79331942,21 2,20.1693989 2,19.1639344 L2,4.83606557 C2,3.83060109 2.79331942,3 3.75365344,3 L20.2463466,3 Z M8.43006263,11.295082 L3.127,16.426 L3.12734864,19.1202186 C3.12734864,19.4699454 3.37787056,19.7322404 3.71189979,19.7322404 L17.008,19.732 L8.43006263,11.295082 Z M17.8663883,14.9234973 L15.66,16.836 L18.604,19.732 L20.2045929,19.7322404 C20.5386221,19.7322404 20.7891441,19.4699454 20.7891441,19.1202186 L20.789,17.387 L17.8663883,14.9234973 Z M20.2045929,4.18032787 L3.71189979,4.18032787 C3.37787056,4.18032787 3.12734864,4.44262295 3.12734864,4.79234973 L3.127,14.866 L8.43006263,9.72131148 L14.835,16.023 L17.8663883,13.4371585 L20.789,15.938 L20.7891441,4.79234973 C20.7891441,4.44262295 20.5386221,4.18032787 20.2045929,4.18032787 Z M14.9436326,6.49180328 C16.1962422,6.49180328 17.2400835,7.58469945 17.2400835,8.89617486 C17.2400835,10.2076503 16.1962422,11.3005464 14.9436326,11.3005464 C13.6492693,11.3005464 12.6471816,10.2076503 12.6471816,8.89617486 C12.6471816,7.58469945 13.691023,6.49180328 14.9436326,6.49180328 Z M14.9436326,7.58469945 C14.2755741,7.58469945 13.7327766,8.15300546 13.7327766,8.85245902 C13.7327766,9.55191257 14.2755741,10.1202186 14.9436326,10.1202186 C15.611691,10.1202186 16.1544885,9.55191257 16.1544885,8.85245902 C16.1544885,8.15300546 15.611691,7.58469945 14.9436326,7.58469945 Z" id="Combined-Shape" fill="#333333" fill-rule="nonzero"></path>
    </g>
</svg>