<?xml version="1.0" encoding="UTF-8"?>
<svg width="24px" height="24px" viewBox="0 0 24 24" version="1.1" xmlns="http://www.w3.org/2000/svg" xmlns:xlink="http://www.w3.org/1999/xlink">
    <title>icon_List_tab_2</title>
    <g id="icon_List_tab_2" stroke="none" stroke-width="1" fill="none" fill-rule="evenodd">
        <path d="M21.1836735,4 C21.6345182,4 22,4.3581722 22,4.8 C22,5.20784105 21.6885835,5.54440158 21.2860717,5.59376686 L21.1836735,5.6 L2.81632653,5.6 C2.36548184,5.6 2,5.2418278 2,4.8 C2,4.39215895 2.31141648,4.05559842 2.71392827,4.00623314 L2.81632653,4 L21.1836735,4 Z M21.3,11 C21.7418278,11 22.1,11.3581722 22.1,11.8 C22.1,12.207841 21.7948119,12.5444016 21.4003503,12.5937669 L21.3,12.6 L11.8,12.6 C11.3581722,12.6 11,12.2418278 11,11.8 C11,11.392159 11.3051881,11.0555984 11.6996497,11.0062331 L11.8,11 L21.3,11 Z M21.1836735,18 C21.6345182,18 22,18.3581722 22,18.8 C22,19.207841 21.6885835,19.5444016 21.2860717,19.5937669 L21.1836735,19.6 L2.81632653,19.6 C2.36548184,19.6 2,19.2418278 2,18.8 C2,18.392159 2.31141648,18.0555984 2.71392827,18.0062331 L2.81632653,18 L21.1836735,18 Z M2.92186554,11.2317787 L6.3598156,8.36682033 C6.7840925,8.01325625 7.4146572,8.07058032 7.76822128,8.49485721 C7.91798378,8.67457221 8,8.90110511 8,9.13504161 L8,14.8649584 C8,15.4172431 7.55228475,15.8649584 7,15.8649584 C6.76606349,15.8649584 6.5395306,15.7829422 6.3598156,15.6331797 L2.92186554,12.7682213 C2.49758864,12.4146572 2.44026457,11.7840925 2.79382866,11.3598156 C2.83254788,11.3133525 2.87540247,11.2704979 2.92186554,11.2317787 Z" id="Combined-Shape" fill="#333333" fill-rule="nonzero"></path>
    </g>
</svg>