<?xml version="1.0" encoding="UTF-8"?>
<svg width="24px" height="24px" viewBox="0 0 24 24" version="1.1" xmlns="http://www.w3.org/2000/svg" xmlns:xlink="http://www.w3.org/1999/xlink">
    <title>icon_Media_link 2</title>
    <g id="icon_Media_link" stroke="none" stroke-width="1" fill="none" fill-rule="evenodd">
        <path d="M20,2 C21.1045695,2 22,2.8954305 22,4 L22,20 C22,21.1045695 21.1045695,22 20,22 L4,22 C2.8954305,22 2,21.1045695 2,20 L2,4 C2,2.8954305 2.8954305,2 4,2 L20,2 Z M11.199,14.399 L3.4,14.399 L3.4,20 C3.4,20.2982338 3.61758961,20.5456468 3.90267688,20.592147 L4,20.6 L11.199,20.6 L11.199,14.399 Z M20.6,14.399 L12.599,14.399 L12.599,20.6 L20,20.6 C20.2982338,20.6 20.5456468,20.3824104 20.592147,20.0973231 L20.6,20 L20.6,14.399 Z M11.199,7 L3.4,7 L3.4,12.999 L11.199,12.999 L11.199,7 Z M20.6,7 L12.599,7 L12.599,12.999 L20.6,12.999 L20.6,7 Z" id="Combined-Shape" fill="#333333" fill-rule="nonzero"></path>
    </g>
</svg>