<?xml version="1.0" encoding="UTF-8"?>
<svg width="24px" height="24px" viewBox="0 0 24 24" version="1.1" xmlns="http://www.w3.org/2000/svg" xmlns:xlink="http://www.w3.org/1999/xlink">
    <title>icon_List_icon</title>
    <g id="icon_List_icon" stroke="none" stroke-width="1" fill="none" fill-rule="evenodd">
        <path d="M5.00014851,3 C5.07875757,3 5.15003634,3.04619521 5.18218043,3.11797347 L5.751,4.328 L5.95174108,4.75390958 C5.98003925,4.81568843 6.0372647,4.85927793 6.10431279,4.87012578 L7.82581868,5.1323884 C7.90364393,5.1474882 7.96686311,5.20419052 7.99034253,5.27995254 C8.01382195,5.35571457 7.99375634,5.43825766 7.93812307,5.49476564 L6.69243001,6.76780915 C6.64432974,6.81771434 6.62271004,6.88747409 6.63415186,6.9558538 L6.9282203,8.75342771 C6.94426303,8.83070169 6.91452305,8.91032587 6.85176228,8.95813221 C6.78900152,9.00593856 6.70437822,9.01342756 6.63420565,8.97738555 L5.09444312,8.12868644 C5.03578545,8.09614897 4.96451157,8.09614897 4.90585391,8.12868644 L3.36609138,8.97738555 C3.2959188,9.01342756 3.2112955,9.00593856 3.14853474,8.95813221 C3.08577397,8.91032587 3.05603399,8.83070169 3.07207672,8.75342771 L3.36614516,6.9558538 C3.37758698,6.88747409 3.35596729,6.81771434 3.30786702,6.76780915 L2.806,6.255 L2.06179024,5.49507611 C2.00616239,5.43853429 1.98615265,5.35594655 2.00972735,5.28019289 C2.03330205,5.20443923 2.09663402,5.14781772 2.17450937,5.13287065 L3.89555294,4.87001298 C3.95613227,4.85994568 4.0087426,4.82351916 4.03961479,4.77115938 C4.04267954,4.76594502 4.04575903,4.76001666 4.04855595,4.75391061 L4.81843721,3.11842364 L4.81811659,3.11797347 C4.85026068,3.04619521 4.92153945,3 5.00014851,3 Z M5.00014851,13.9999974 C5.07875757,14 5.15003634,14.0461952 5.18218043,14.1179735 L5.751,15.328 L5.95174108,15.7539096 C5.98003925,15.8156884 6.0372647,15.8592779 6.10431279,15.8701258 L7.82581868,16.1323884 C7.90364393,16.1474882 7.96686311,16.2041905 7.99034253,16.2799525 C8.01382195,16.3557146 7.99375634,16.4382577 7.93812307,16.4947656 L6.69243001,17.7678091 C6.64432974,17.8177143 6.62271004,17.8874741 6.63415186,17.9558538 L6.9282203,19.7534277 C6.94426303,19.8307017 6.91452305,19.9103259 6.85176228,19.9581322 C6.78900152,20.0059386 6.70437822,20.0134276 6.63420565,19.9773856 L5.09444312,19.1286864 C5.03578545,19.096149 4.96451157,19.096149 4.90585391,19.1286864 L3.36609138,19.9773856 C3.2959188,20.0134276 3.2112955,20.0059386 3.14853474,19.9581322 C3.08577397,19.9103259 3.05603399,19.8307017 3.07207672,19.7534277 L3.36614516,17.9558538 C3.37758698,17.8874741 3.35596729,17.8177143 3.30786702,17.7678091 L2.806,17.255 L2.06179024,16.4950761 C2.00616239,16.4385343 1.98615265,16.3559465 2.00972735,16.2801929 C2.03330205,16.2044392 2.09663402,16.1478177 2.17450937,16.1328707 L3.89555294,15.870013 C3.95613227,15.8599457 4.0087426,15.8235192 4.03961479,15.7711594 C4.04267954,15.765945 4.04575903,15.7600167 4.04855595,15.7539106 L4.81843721,14.1184236 L4.81811659,14.1179735 C4.84222466,14.0641398 4.88834599,14.0246965 4.94306309,14.0083395 L5.00014851,13.9999974 L5.00014851,13.9999974 Z M21.2631579,5 C21.6701046,5 22,5.44771525 22,6 C22,6.50626102 21.7227962,6.92465461 21.363143,6.99087118 L21.2631579,7 L10.7368421,7 C10.3298954,7 10,6.55228475 10,6 C10,5.49373898 10.2772038,5.07534539 10.636857,5.00912882 L10.7368421,5 L21.2631579,5 Z M21.2631579,11 C21.6701046,11 22,11.4477153 22,12 C22,12.506261 21.7227962,12.9246546 21.363143,12.9908712 L21.2631579,13 L10.7368421,13 C10.3298954,13 10,12.5522847 10,12 C10,11.493739 10.2772038,11.0753454 10.636857,11.0091288 L10.7368421,11 L21.2631579,11 Z M21.2631579,17 C21.6701046,17 22,17.4477153 22,18 C22,18.506261 21.7227962,18.9246546 21.363143,18.9908712 L21.2631579,19 L10.7368421,19 C10.3298954,19 10,18.5522847 10,18 C10,17.493739 10.2772038,17.0753454 10.636857,17.0091288 L10.7368421,17 L21.2631579,17 Z" id="Combined-Shape" fill="#333333" fill-rule="nonzero"></path>
    </g>
</svg>