<?xml version="1.0" encoding="UTF-8"?>
<svg width="24px" height="24px" viewBox="0 0 24 24" version="1.1" xmlns="http://www.w3.org/2000/svg" xmlns:xlink="http://www.w3.org/1999/xlink">
    <title>icon_Text_B</title>
    <g id="icon_Text_B" stroke="none" stroke-width="1" fill="none" fill-rule="evenodd">
        <path d="M4.83105469,3.10449219 L11.984375,3.10449219 C13.4003906,3.10449219 14.4562988,3.16383734 15.1520996,3.28252766 C15.8479004,3.40121797 16.470459,3.64883052 17.0197754,4.02536531 C17.5690918,4.4019001 18.0268555,4.90326436 18.3930664,5.52945808 C18.7592773,6.15565181 18.9423828,6.85756176 18.9423828,7.63518796 C18.9423828,8.47829846 18.7165527,9.25183189 18.2648926,9.95578823 C17.8132324,10.6597446 17.2008464,11.1877118 16.4277344,11.53969 C17.5182292,11.858926 18.3564453,12.4032644 18.9423828,13.172705 C19.5283203,13.9421457 19.8212891,14.8466477 19.8212891,15.8862112 C19.8212891,16.704765 19.6320801,17.5008087 19.2536621,18.2743421 C18.8752441,19.0478755 18.3584798,19.6658837 17.7033691,20.1283667 C17.0482585,20.5908496 16.2405599,20.8752971 15.2802734,20.9817091 C14.6780599,21.0471934 13.2254232,21.0881211 10.9223633,21.1044922 L4.83105469,21.1044922 L4.83105469,3.10449219 Z M8.44433594,6.10039942 L8.44433594,10.2627459 L10.8125,10.2627459 C12.2203776,10.2627459 13.0952148,10.2422821 13.4370117,10.2013544 C14.0555013,10.1276845 14.541748,9.91281415 14.895752,9.55674321 C15.2497559,9.20067227 15.4267578,8.73205017 15.4267578,8.15087691 C15.4267578,7.59426026 15.2741699,7.14200924 14.9689941,6.79412384 C14.6638184,6.44623844 14.2101237,6.23546081 13.6079102,6.16179096 C13.2498372,6.12086327 12.2203776,6.10039942 10.5195312,6.10039942 L8.44433594,6.10039942 Z M8.44433594,13.2586532 L8.44433594,18.07175 L11.7890625,18.07175 C13.0911458,18.07175 13.9171549,18.0349151 14.2670898,17.9612453 C14.8041992,17.8630188 15.2416178,17.6235918 15.5793457,17.2429642 C15.9170736,16.8623367 16.0859375,16.3527869 16.0859375,15.7143148 C16.0859375,15.1740693 15.9557292,14.7156791 15.6953125,14.3391443 C15.4348958,13.9626095 15.0585124,13.688394 14.5661621,13.5164976 C14.0738118,13.3446013 13.0056966,13.2586532 11.3618164,13.2586532 L8.44433594,13.2586532 Z" id="Shape" fill="#333333" fill-rule="nonzero"></path>
    </g>
</svg>