<?xml version="1.0" encoding="UTF-8"?>
<svg width="24px" height="24px" viewBox="0 0 24 24" version="1.1" xmlns="http://www.w3.org/2000/svg" xmlns:xlink="http://www.w3.org/1999/xlink">
    <title>icon_Media_collage</title>
    <g id="icon_Media_collage" stroke="none" stroke-width="1" fill="none" fill-rule="evenodd">
        <path d="M13,2 C13.5522847,2 14,2.44771525 14,3 L14,10 C14,10.5522847 13.5522847,11 13,11 L3,11 C2.44771525,11 2,10.5522847 2,10 L2,3 C2,2.44771525 2.44771525,2 3,2 L13,2 Z M12.8,3.2 L3.2,3.2 L3.2,9.8 L12.8,9.8 L12.8,3.2 Z M21,13 C21.5522847,13 22,13.4477153 22,14 L22,21 C22,21.5522847 21.5522847,22 21,22 L11,22 C10.4477153,22 10,21.5522847 10,21 L10,14 C10,13.4477153 10.4477153,13 11,13 L21,13 Z M20.8,14.2 L11.2,14.2 L11.2,20.8 L20.8,20.8 L20.8,14.2 Z M21,2 C21.5522847,2 22,2.44771525 22,3 L22,10 C22,10.5522847 21.5522847,11 21,11 L17,11 C16.4477153,11 16,10.5522847 16,10 L16,3 C16,2.44771525 16.4477153,2 17,2 L21,2 Z M20.8,3.2 L17.2,3.2 L17.2,9.8 L20.8,9.8 L20.8,3.2 Z M7,13 C7.55228475,13 8,13.4477153 8,14 L8,21 C8,21.5522847 7.55228475,22 7,22 L3,22 C2.44771525,22 2,21.5522847 2,21 L2,14 C2,13.4477153 2.44771525,13 3,13 L7,13 Z M6.8,14.2 L3.2,14.2 L3.2,20.8 L6.8,20.8 L6.8,14.2 Z" id="Combined-Shape" fill="#333333" fill-rule="nonzero"></path>
    </g>
</svg>