<?xml version="1.0" encoding="UTF-8"?>
<svg width="24px" height="24px" viewBox="0 0 24 24" version="1.1" xmlns="http://www.w3.org/2000/svg" xmlns:xlink="http://www.w3.org/1999/xlink">
    <title>icon_List_dot</title>
    <g id="icon_List_dot" stroke="none" stroke-width="1" fill="none" fill-rule="evenodd">
        <path d="M21.1403509,5 C21.615122,5 22,5.40294373 22,5.9 C22,6.35563492 21.6765956,6.73218915 21.2570002,6.79178406 L21.1403509,6.8 L8.85964912,6.8 C8.38487802,6.8 8,6.39705627 8,5.9 C8,5.44436508 8.32340445,5.06781085 8.74299983,5.00821594 L8.85964912,5 L21.1403509,5 Z M21.1403509,11 C21.615122,11 22,11.4029437 22,11.9 C22,12.3556349 21.6765956,12.7321892 21.2570002,12.7917841 L21.1403509,12.8 L8.85964912,12.8 C8.38487802,12.8 8,12.3970563 8,11.9 C8,11.4443651 8.32340445,11.0678108 8.74299983,11.0082159 L8.85964912,11 L21.1403509,11 Z M21.1403509,17 C21.615122,17 22,17.4029437 22,17.9 C22,18.3556349 21.6765956,18.7321892 21.2570002,18.7917841 L21.1403509,18.8 L8.85964912,18.8 C8.38487802,18.8 8,18.3970563 8,17.9 C8,17.4443651 8.32340445,17.0678108 8.74299983,17.0082159 L8.85964912,17 L21.1403509,17 Z M4,8 C5.1045695,8 6,7.1045695 6,6 C6,4.8954305 5.1045695,4 4,4 C2.8954305,4 2,4.8954305 2,6 C2,7.1045695 2.8954305,8 4,8 Z M4,14 C5.1045695,14 6,13.1045695 6,12 C6,10.8954305 5.1045695,10 4,10 C2.8954305,10 2,10.8954305 2,12 C2,13.1045695 2.8954305,14 4,14 Z M4,20 C5.1045695,20 6,19.1045695 6,18 C6,16.8954305 5.1045695,16 4,16 C2.8954305,16 2,16.8954305 2,18 C2,19.1045695 2.8954305,20 4,20 Z" id="Combined-Shape" fill="#333333" fill-rule="nonzero"></path>
    </g>
</svg>