<?xml version="1.0" encoding="UTF-8"?>
<svg width="24px" height="24px" viewBox="0 0 24 24" version="1.1" xmlns="http://www.w3.org/2000/svg" xmlns:xlink="http://www.w3.org/1999/xlink">
    <title>icon_List_number</title>
    <g id="icon_List_number" stroke="none" stroke-width="1" fill="none" fill-rule="evenodd">
        <path d="M4.31902323,3 C4.1198531,3 3.92898173,3.05809129 3.6385253,3.21576763 L2.23603568,3.99585062 C1.97877427,4.13692946 1.94557924,4.42738589 2.07006057,4.65145228 C2.20284066,4.89211618 2.46840082,5.01659751 2.74225974,4.85892116 L3.81279916,4.24481328 L3.81279916,8.54356846 C3.81279916,8.85892116 4.06176182,9 4.34391949,9 C4.62607717,9 4.87503983,8.85892116 4.87503983,8.54356846 L4.87503983,3.45643154 C4.87503983,3.14107884 4.63437593,3 4.31902323,3 Z M21.1403509,5 C21.615122,5 22,5.40294373 22,5.9 C22,6.35563492 21.6765956,6.73218915 21.2570002,6.79178406 L21.1403509,6.8 L8.85964912,6.8 C8.38487802,6.8 8,6.39705627 8,5.9 C8,5.44436508 8.32340445,5.06781085 8.74299983,5.00821594 L8.85964912,5 L21.1403509,5 Z M21.1403509,11 C21.615122,11 22,11.4029437 22,11.9 C22,12.3556349 21.6765956,12.7321892 21.2570002,12.7917841 L21.1403509,12.8 L8.85964912,12.8 C8.38487802,12.8 8,12.3970563 8,11.9 C8,11.4443651 8.32340445,11.0678108 8.74299983,11.0082159 L8.85964912,11 L21.1403509,11 Z M21.1403509,17 C21.615122,17 22,17.4029437 22,17.9 C22,18.3556349 21.6765956,18.7321892 21.2570002,18.7917841 L21.1403509,18.8 L8.85964912,18.8 C8.38487802,18.8 8,18.3970563 8,17.9 C8,17.4443651 8.32340445,17.0678108 8.74299983,17.0082159 L8.85964912,17 L21.1403509,17 Z M4.06925208,15 C3.1966759,15 2.5900277,15.4072022 2.22437673,15.9473684 C2.05817175,16.1966759 2.14958449,16.4459834 2.36565097,16.6038781 C2.58171745,16.7617729 2.83933518,16.7202216 2.99722992,16.5124654 C3.28808864,16.1385042 3.59556787,15.9473684 4.08587258,15.9473684 C4.65927978,15.9473684 4.94182825,16.2132964 4.94182825,16.5789474 L4.94182825,16.6204986 C4.94182825,17.0443213 4.81717452,17.3601108 4.20221607,17.9750693 L2.27423823,19.9196676 C2.09972299,20.1024931 2,20.2520776 2,20.4265928 C2,20.8171745 2.22437673,21 2.74792244,21 L5.91412742,21 C6.17174515,21 6.28808864,20.800554 6.28808864,20.5595568 C6.28808864,20.3185596 6.17174515,20.1191136 5.91412742,20.1191136 L3.39612188,20.1191136 L5.14958449,18.3822715 C5.70637119,17.8254848 6.01385042,17.2437673 6.01385042,16.6121884 L6.01385042,16.5207756 C6.01385042,15.7146814 5.42382271,15 4.06925208,15 Z" id="Combined-Shape" fill="#333333" fill-rule="nonzero"></path>
    </g>
</svg>