<?xml version="1.0" encoding="UTF-8"?>
<svg width="24px" height="24px" viewBox="0 0 24 24" version="1.1" xmlns="http://www.w3.org/2000/svg" xmlns:xlink="http://www.w3.org/1999/xlink">
    <title>icon_List_tab_1</title>
    <g id="icon_List_tab_1" stroke="none" stroke-width="1" fill="none" fill-rule="evenodd">
        <path d="M21.1836735,4 C21.6345182,4 22,4.3581722 22,4.8 C22,5.20784105 21.6885835,5.54440158 21.2860717,5.59376686 L21.1836735,5.6 L2.81632653,5.6 C2.36548184,5.6 2,5.2418278 2,4.8 C2,4.39215895 2.31141648,4.05559842 2.71392827,4.00623314 L2.81632653,4 L21.1836735,4 Z M21.3,11 C21.7418278,11 22.1,11.3581722 22.1,11.8 C22.1,12.207841 21.7948119,12.5444016 21.4003503,12.5937669 L21.3,12.6 L11.8,12.6 C11.3581722,12.6 11,12.2418278 11,11.8 C11,11.392159 11.3051881,11.0555984 11.6996497,11.0062331 L11.8,11 L21.3,11 Z M21.1836735,18 C21.6345182,18 22,18.3581722 22,18.8 C22,19.207841 21.6885835,19.5444016 21.2860717,19.5937669 L21.1836735,19.6 L2.81632653,19.6 C2.36548184,19.6 2,19.2418278 2,18.8 C2,18.392159 2.31141648,18.0555984 2.71392827,18.0062331 L2.81632653,18 L21.1836735,18 Z M7.07813446,12.7682213 L3.6401844,15.6331797 C3.2159075,15.9867437 2.5853428,15.9294197 2.23177872,15.5051428 C2.08201622,15.3254278 2,15.0988949 2,14.8649584 L2,9.13504161 C2,8.58275686 2.44771525,8.13504161 3,8.13504161 C3.23393651,8.13504161 3.4604694,8.21705783 3.6401844,8.36682033 L7.07813446,11.2317787 C7.50241136,11.5853428 7.55973543,12.2159075 7.20617134,12.6401844 C7.16745212,12.6866475 7.12459753,12.7295021 7.07813446,12.7682213 Z" id="Combined-Shape" fill="#333333" fill-rule="nonzero"></path>
    </g>
</svg>