<?xml version="1.0" encoding="UTF-8"?>
<svg width="24px" height="24px" viewBox="0 0 24 24" version="1.1" xmlns="http://www.w3.org/2000/svg" xmlns:xlink="http://www.w3.org/1999/xlink">
    <title>icon_Media_link</title>
    <g id="icon_Media_link" stroke="none" stroke-width="1" fill="none" fill-rule="evenodd">
        <path d="M10.4238585,8.73419782 L10.6835775,8.74573996 C12.0707835,8.84508893 13.3464484,9.54204362 14.1794833,10.6557148 C14.4441287,11.0095151 14.3718544,11.5108643 14.0180541,11.7755097 C13.6642538,12.0401551 13.1629046,11.9678808 12.8982592,11.6140806 C12.3432901,10.8721511 11.4934402,10.4078388 10.5692814,10.3416524 C9.71621176,10.2805572 8.8774701,10.5642542 8.23819812,11.1237309 L8.08264288,11.2693055 L5.69640111,13.6553764 C4.48622479,14.9083644 4.50353201,16.9000516 5.73530019,18.1318198 C6.91969268,19.3162123 8.80667301,19.3777673 10.0551598,18.3135713 L10.2018276,18.180464 L11.5675402,16.8147515 C11.8799596,16.5023321 12.3864916,16.5023321 12.698911,16.8147515 C12.9829287,17.0987692 13.0087485,17.5432104 12.7763704,17.856396 L12.698911,17.9461223 L11.3232825,19.32158 C9.44248823,21.1381119 6.4528716,21.1121329 4.60392934,19.2631907 C2.81101564,17.4702769 2.73225659,14.6047732 4.39436176,12.7087693 L4.55528512,12.5339215 L6.95116949,10.1380372 C7.87295404,9.21591838 9.12760528,8.71175517 10.4238585,8.73419782 Z M19.2791639,4.60392934 C21.0720776,6.39684305 21.1508367,9.2623468 19.4887315,11.1583507 L19.3278081,11.3331985 L16.9319238,13.7290828 C15.9486869,14.7126762 14.5867217,15.220729 13.1995157,15.12138 C11.8123098,15.0220311 10.5366448,14.3250764 9.70360998,13.2114052 C9.43896459,12.8576049 9.51123889,12.3562557 9.86503915,12.0916103 C10.2188394,11.8269649 10.7201887,11.8992392 10.9848341,12.2530394 C11.5398032,12.9949689 12.3896531,13.4592812 13.3138119,13.5254676 C14.1668815,13.5865628 15.0056231,13.3028658 15.6448951,12.7433891 L15.8004504,12.5978145 L18.1866921,10.2117436 C19.3968685,8.95875558 19.3795612,6.96706838 18.1477931,5.73530019 C16.9634006,4.55090771 15.0764202,4.48935265 13.8264652,5.55501267 L13.679614,5.68830279 L12.3059148,7.05401533 C11.9925859,7.36552259 11.4860561,7.36404583 11.1745488,7.05071689 C10.8913604,6.76587239 10.8668364,6.32135774 11.1001266,6.00885096 L11.1778472,5.91935084 L12.5598108,4.54553998 C14.440605,2.72900812 17.4302216,2.75498708 19.2791639,4.60392934 Z" id="Combined-Shape" fill="#333333" fill-rule="nonzero"></path>
    </g>
</svg>