<?xml version="1.0" encoding="UTF-8"?>
<svg width="24px" height="24px" viewBox="0 0 24 24" version="1.1" xmlns="http://www.w3.org/2000/svg" xmlns:xlink="http://www.w3.org/1999/xlink">
    <title>icon_Media_map</title>
    <g id="icon_Media_map" stroke="none" stroke-width="1" fill="none" fill-rule="evenodd">
        <path d="M12,2 C15.865,2 19,5.135 19,9 C19,10.8934426 18.0894921,13.1120666 16.925236,15.1750301 L16.6019138,15.7334358 C16.5471427,15.8257398 16.4919707,15.9176319 16.4364594,16.0090668 L16.0998145,16.5518303 C16.043193,16.6412563 15.9863557,16.7301349 15.9293641,16.8184209 L15.5860579,17.3406651 L15.2420114,17.8465202 L14.9001855,18.3338187 L14.5635406,18.800393 L14.2350373,19.2440755 L13.7640243,19.8619356 L13.192135,20.585397 L12.7061032,21.1782748 L12.2553826,21.7093215 L12,22 L11.5878289,21.5268062 L11.1817333,21.0432459 L10.807865,20.585397 L10.3857019,20.0540948 L9.76496271,19.2440755 L9.26896965,18.5698318 L8.92936413,18.0926245 C8.87237258,18.011393 8.81522683,17.9293432 8.75798855,17.8465202 L8.41394214,17.3406651 L8.07063587,16.8184209 L7.73103035,16.2819553 L7.56354056,16.0090668 L7.56354056,16.0090668 L7.23503729,15.4553333 C5.99516259,13.3144316 5,10.9795082 5,9 C5,5.135 8.135,2 12,2 Z M12,3.4 C8.90819865,3.4 6.4,5.90819865 6.4,9 C6.4,9.98001616 6.71857593,11.1928802 7.32728376,12.5744296 C7.89508459,13.8631347 8.69262063,15.2511182 9.66055022,16.6857282 C10.2531504,17.5640463 10.8811666,18.4184317 11.5161715,19.2271542 L11.999,19.832 L12.0067087,19.8247948 C12.6434311,19.0402618 13.2802718,18.2046334 13.8888033,17.3396398 L14.3394498,16.6857282 C15.3073794,15.2511182 16.1049154,13.8631347 16.6727162,12.5744296 C17.2814241,11.1928802 17.6,9.98001616 17.6,9 C17.6,5.90819865 15.0918014,3.4 12,3.4 Z M12,5.1 C14.1531986,5.1 15.9,6.84680135 15.9,9 C15.9,11.1531986 14.1531986,12.9 12,12.9 C9.84680135,12.9 8.1,11.1531986 8.1,9 C8.1,6.84680135 9.84680135,5.1 12,5.1 Z M12,6.5 C10.62,6.5 9.5,7.62 9.5,9 C9.5,10.38 10.62,11.5 12,11.5 C13.38,11.5 14.5,10.38 14.5,9 C14.5,7.62 13.38,6.5 12,6.5 Z" id="Combined-Shape" fill="#333333" fill-rule="nonzero"></path>
    </g>
</svg>