<?xml version="1.0" encoding="UTF-8"?>
<svg width="24px" height="24px" viewBox="0 0 24 24" version="1.1" xmlns="http://www.w3.org/2000/svg" xmlns:xlink="http://www.w3.org/1999/xlink">
    <title>icon_Text_Color</title>
    <g id="icon_Text_Color" stroke="none" stroke-width="1" fill="none" fill-rule="evenodd">
        <rect id="Line_H" fill="#FF0000" x="18" y="17" width="4" height="4"></rect>
        <path d="M3.61061947,7.32743363 L3,7.32743363 L3.09292035,3 L20.5619469,3 L20.6548673,7.32743363 L20.0840708,7.32743363 C19.880531,6.14159292 19.6017699,5.28539823 19.2477876,4.75884956 C18.8938053,4.23230088 18.5132743,3.90929204 18.1061947,3.78982301 C17.699115,3.67035398 17.0044248,3.61061947 16.0221239,3.61061947 L13.1283186,3.61061947 L13.1283186,16.3141593 C13.1283186,17.7212389 13.1615044,18.6460177 13.2278761,19.0884956 C13.2942478,19.5309735 13.4734513,19.8584071 13.7654867,20.0707965 C14.0575221,20.2831858 14.6061947,20.3893805 15.4115044,20.3893805 L16.2876106,20.3893805 L16.2876106,21 L7.31415929,21 L7.31415929,20.3893805 L8.24336283,20.3893805 C9.01327434,20.3893805 9.54646018,20.2920354 9.84292035,20.0973451 C10.1393805,19.9026549 10.329646,19.5995575 10.4137168,19.1880531 C10.4977876,18.7765487 10.539823,17.8185841 10.539823,16.3141593 L10.539823,3.61061947 L7.87168142,3.61061947 C6.71238938,3.61061947 5.93362832,3.6659292 5.53539823,3.77654867 C5.13716814,3.88716814 4.76327434,4.22123894 4.41371681,4.77876106 C4.06415929,5.33628319 3.79646018,6.18584071 3.61061947,7.32743363 Z" id="Path" fill="#333333" fill-rule="nonzero"></path>
    </g>
</svg>