<?xml version="1.0" encoding="UTF-8"?>
<svg width="24px" height="24px" viewBox="0 0 24 24" version="1.1" xmlns="http://www.w3.org/2000/svg" xmlns:xlink="http://www.w3.org/1999/xlink">
    <title>icon_Media_icon</title>
    <g id="icon_Media_icon" stroke="none" stroke-width="1" fill="none" fill-rule="evenodd">
        <path d="M12,2 C17.5228475,2 22,6.47715252 22,12 C22,17.5228474 17.5228474,22 12,22 C6.47715252,22 2,17.5228475 2,12 C2,6.4771525 6.4771525,2 12,2 Z M12,3.44329897 C7.27426451,3.44329897 3.44329897,7.27426451 3.44329897,12 C3.44329897,16.7257355 7.27426453,20.556701 12,20.556701 C16.7257354,20.556701 20.556701,16.7257354 20.556701,12 C20.556701,7.27426453 16.7257355,3.44329897 12,3.44329897 Z M16.1201133,14.0873759 C16.4618723,14.2924313 16.5726924,14.7357119 16.3676371,15.0774709 C15.4893931,16.5412108 13.7573874,17.4896904 12,17.4896904 C10.2426126,17.4896904 8.51060693,16.5412108 7.63236296,15.0774708 C7.4273076,14.7357119 7.53812775,14.2924313 7.87988671,14.0873759 C8.22164567,13.8823206 8.66492627,13.9931407 8.86998163,14.3348997 C9.48329263,15.3570847 10.7420263,16.0463914 12,16.0463914 C13.2579737,16.0463914 14.5167074,15.3570847 15.1300184,14.3348997 C15.3350738,13.9931407 15.7783544,13.8823206 16.1201133,14.0873759 Z M15.097312,8.90721649 C15.6666777,8.90721649 16.1282398,9.36877861 16.1282398,9.93814433 C16.1282398,10.4668411 15.7302602,10.9025847 15.2175399,10.9621364 L15.097312,10.9690722 C14.5234178,10.9690722 14.0618557,10.5075101 14.0618557,9.93814433 C14.0618557,9.40944759 14.4598353,8.97370396 14.9725556,8.9141523 L15.097312,8.90721649 Z M8.91174496,8.90721649 C9.48111068,8.90721649 9.94267278,9.36877861 9.94267278,9.93814433 C9.94267278,10.4668411 9.54469322,10.9025847 9.03197293,10.9621364 L8.91174496,10.9690722 C8.33785077,10.9690722 7.87628866,10.5075101 7.87628866,9.93814433 C7.87628866,9.40944759 8.27426824,8.97370396 8.78698853,8.9141523 L8.91174496,8.90721649 Z" id="Combined-Shape" fill="#333333" fill-rule="nonzero"></path>
    </g>
</svg>