<?xml version="1.0" encoding="UTF-8"?>
<svg width="24px" height="24px" viewBox="0 0 24 24" version="1.1" xmlns="http://www.w3.org/2000/svg" xmlns:xlink="http://www.w3.org/1999/xlink">
    <title>icon_Text_I</title>
    <g id="icon_Text_I" stroke="none" stroke-width="1" fill="none" fill-rule="evenodd">
        <path d="M13.7787611,20.3893805 L13.5929204,21 L6,21 L6.18584071,20.3893805 L6.59734513,20.3893805 C7.1460177,20.3893805 7.61061947,20.289823 7.99115044,20.090708 C8.37168142,19.8915929 8.63053097,19.6615044 8.76769912,19.4004425 C8.90486726,19.1393805 9.10619469,18.5663717 9.37168142,17.6814159 L12.8362832,6.22566372 C13.1106195,5.34070796 13.2477876,4.78761062 13.2477876,4.56637168 C13.2477876,3.92920354 12.6769912,3.61061947 11.5353982,3.61061947 L11.0575221,3.61061947 L11.2433628,3 L18.3185841,3 L18.1327434,3.61061947 L17.7610619,3.61061947 C17.3362832,3.61061947 16.9513274,3.68584071 16.6061947,3.83628319 C16.2610619,3.98672566 16.0154867,4.19469027 15.869469,4.46017699 C15.7234513,4.72566372 15.4823009,5.41150442 15.1460177,6.51769912 L11.7876106,17.5486726 C11.5309735,18.3893805 11.4026549,18.920354 11.4026549,19.1415929 C11.4026549,19.5752212 11.590708,19.8915929 11.9668142,20.090708 C12.3429204,20.289823 12.7743363,20.3893805 13.2610619,20.3893805 L13.7787611,20.3893805 Z" id="Path" fill="#333333" fill-rule="nonzero"></path>
    </g>
</svg>